<svg width="17" height="17" viewBox="0 0 17 17" fill="none" xmlns="http://www.w3.org/2000/svg">
<path d="M12.1905 9.0306L7.19051 14.0306C7.04961 14.1715 6.85852 14.2506 6.65926 14.2506C6.46 14.2506 6.26891 14.1715 6.12801 14.0306C5.98711 13.8897 5.90796 13.6986 5.90796 13.4993C5.90796 13.3001 5.98711 13.109 6.12801 12.9681L10.5974 8.49997L6.12926 4.0306C6.0595 3.96083 6.00415 3.87801 5.9664 3.78686C5.92864 3.69571 5.90921 3.59801 5.90921 3.49935C5.90921 3.40069 5.92864 3.30299 5.9664 3.21184C6.00415 3.12069 6.0595 3.03786 6.12926 2.9681C6.19902 2.89833 6.28185 2.84299 6.373 2.80524C6.46415 2.76748 6.56185 2.74805 6.66051 2.74805C6.75917 2.74805 6.85687 2.76748 6.94802 2.80524C7.03917 2.84299 7.122 2.89833 7.19176 2.9681L12.1918 7.9681C12.2616 8.03786 12.317 8.12072 12.3547 8.21193C12.3925 8.30313 12.4118 8.4009 12.4117 8.49961C12.4116 8.59832 12.392 8.69603 12.354 8.78715C12.3161 8.87827 12.2605 8.961 12.1905 9.0306Z" fill="white"/>
</svg>
