<svg width="17" height="17" viewBox="0 0 17 17" fill="none" xmlns="http://www.w3.org/2000/svg">
<path d="M15.1905 5.53066L7.19051 13.5307C7.12083 13.6006 7.03804 13.6561 6.94687 13.6939C6.85571 13.7318 6.75797 13.7513 6.65926 13.7513C6.56055 13.7513 6.46281 13.7318 6.37165 13.6939C6.28048 13.6561 6.19769 13.6006 6.12801 13.5307L2.62801 10.0307C2.55825 9.9609 2.5029 9.87807 2.46515 9.78692C2.42739 9.69577 2.40796 9.59807 2.40796 9.49941C2.40796 9.40075 2.42739 9.30305 2.46515 9.2119C2.5029 9.12075 2.55825 9.03793 2.62801 8.96816C2.69777 8.8984 2.7806 8.84306 2.87175 8.8053C2.9629 8.76754 3.0606 8.74811 3.15926 8.74811C3.25792 8.74811 3.35562 8.76754 3.44677 8.8053C3.53792 8.84306 3.62075 8.8984 3.69051 8.96816L6.65988 11.9375L14.1293 4.46941C14.2702 4.32851 14.4613 4.24936 14.6605 4.24936C14.8598 4.24936 15.0509 4.32851 15.1918 4.46941C15.3327 4.61031 15.4118 4.8014 15.4118 5.00066C15.4118 5.19992 15.3327 5.39101 15.1918 5.53191L15.1905 5.53066Z" fill="white"/>
</svg>
