<svg width="17" height="17" viewBox="0 0 17 17" fill="none" xmlns="http://www.w3.org/2000/svg">
<path d="M14.9099 8.5C14.9099 8.69891 14.8309 8.88968 14.6902 9.03033C14.5496 9.17098 14.3588 9.25 14.1599 9.25H9.40991V14C9.40991 14.1989 9.33089 14.3897 9.19024 14.5303C9.04959 14.671 8.85882 14.75 8.65991 14.75C8.461 14.75 8.27023 14.671 8.12958 14.5303C7.98893 14.3897 7.90991 14.1989 7.90991 14V9.25H3.15991C2.961 9.25 2.77023 9.17098 2.62958 9.03033C2.48893 8.88968 2.40991 8.69891 2.40991 8.5C2.40991 8.30109 2.48893 8.11032 2.62958 7.96967C2.77023 7.82902 2.961 7.75 3.15991 7.75H7.90991V3C7.90991 2.80109 7.98893 2.61032 8.12958 2.46967C8.27023 2.32902 8.461 2.25 8.65991 2.25C8.85882 2.25 9.04959 2.32902 9.19024 2.46967C9.33089 2.61032 9.40991 2.80109 9.40991 3V7.75H14.1599C14.3588 7.75 14.5496 7.82902 14.6902 7.96967C14.8309 8.11032 14.9099 8.30109 14.9099 8.5Z" fill="#24272B"/>
</svg>
